<svg xmlns="http://www.w3.org/2000/svg" viewBox="0 0 128 128">
  <path d="M0 113v-3c.7-3.5 2.9-6 5.3-8.5 12.2-12.1 24.3-24.3 36.4-36.4.3-.3.8-.6 1.3-.9-.6-.6-.9-1-1.2-1.3L5.3 26.4C2.8 24 .6 21.5 0 18v-3C2.6 7.6 7.6 2.6 15 0h3c3.5.6 6 2.8 8.4 5.2C38.6 17.5 50.8 29.6 63 41.8c.3.3.7.6 1.3 1.2.3-.5.5-.9.9-1.3l36.5-36.5c2.4-2.4 4.9-4.6 8.4-5.3h3c3.5.6 6.1 2.7 8.4 5.2.9 1 1.9 1.9 2.9 2.9.4.4.9.9 1.3 1.4 3.7 4.6 3.2 10.8-1.3 15.3L86.3 62.8 85 64.1c.5.3.9.6 1.3.9 12.6 12.5 25.1 25.1 37.6 37.6l1.4 1.4c3.7 4.3 3.7 10.6-.1 14.7-2 2.2-4.1 4.2-6.3 6.3-2 1.8-4.4 2.7-7.1 2.8-3.5.1-6.4-1.4-8.9-3.9-12.6-12.7-25.3-25.3-38-38-.3-.3-.6-.6-1-.9l-6.4 6.4c-11 11-22 22-33 32.9-4.7 4.7-11.5 4.7-16.3 0-1-1-2-2.1-3.1-3.1-2.4-2.1-4.5-4.7-5.1-8.2z"/>
</svg>
