<svg xmlns="http://www.w3.org/2000/svg" viewBox="0 0 128 128"><path d="M44.8 0h65c.1.1.2.2.3.2 6.3.7 12.6 6.6 12.5 15.2-.1 23.6 0 47.2 0 70.7 0 8.9-6.3 15.2-15.2 15.2H47.2c-1 0-1.9 0-2.9-.2C37 99.8 32 94 32 86.4V37.3c0-7.5-.1-15.1 0-22.6.1-6.3 3.1-10.7 8.7-13.4C42 .7 43.4.4 44.8 0zm32.6 45.3h19.7c2.4 0 4.1-1.7 4.1-3.9s-1.7-3.9-4-4.1H57.4c-1.8.1-3.1.9-3.8 2.6-1.1 2.7.9 5.4 4 5.4h19.8zm-.1 16h20c2 0 3.6-1.3 4-3.1.4-1.7-.4-3.6-2-4.3-.8-.4-1.8-.5-2.7-.5H57.8c-.7 0-1.4.1-2.1.4-1.7.6-2.7 2.5-2.3 4.2.4 1.9 2 3.2 4 3.3h19.9zm-.1 16h20.1c1.9 0 3.4-1.2 3.9-3 .5-1.7-.2-3.6-1.8-4.4-.8-.4-1.8-.6-2.7-.6H57.8c-1.8 0-3.3.7-4.1 2.4-1.3 2.7.7 5.6 3.8 5.6h19.7z"/><path d="M18.1 128c-2.5-.6-4.9-1.4-7-3.1-3.7-2.9-5.7-6.7-5.7-11.4V27.8c0-7.9 6.4-14.2 14.4-14.5H24v73c0 11.8 8.1 21.1 19.8 22.8 1.2.2 2.5.2 3.7.2h50.9c1.4 8.2-2.3 15.7-10.5 18.2-.7.2-1.4.4-2 .5H18.1z"/></svg>