<svg xmlns="http://www.w3.org/2000/svg" viewBox="0 0 128 128">
  <path d="M128 37.9v5.5c-.1.8-.3 1.5-.4 2.3-1.1 7.2-3.8 13.9-7.3 20.2-6.1 11-14 20.5-22.6 29.6-8.7 9.1-18.1 17.4-28 25.3-3.4 2.7-8.1 2.7-11.4 0-4.7-3.9-9.5-7.8-14-11.8-11.8-10.6-22.7-21.9-31.6-34.9-4.9-7.2-9.1-14.8-11.3-23.3C.8 48.4.4 46 0 43.6v-6c.1-.6.2-1.1.3-1.7 2.3-13.8 9.9-23.6 23-28.4 13.1-4.8 25.3-2.1 35.8 7.1 1.8 1.5 3.3 3.4 4.9 5.1 0 0 .1 0 .2-.1.1-.2.3-.3.4-.5 6.6-8.4 15.3-13 26-13.8 16.1-1.2 31.5 9.6 35.9 25.1.7 2.6 1 5.1 1.5 7.5z"/>
</svg>
