<svg xmlns="http://www.w3.org/2000/svg" viewBox="0 0 128 128">
  <path d="M65.2 0c3.2 1.2 4.4 3.5 4.2 6.8-.1 2.4 0 4.8-.1 7.1-.2 2.7-2.4 4.6-5.1 4.7-2.5.1-4.8-1.7-5.3-4.2-.1-.5-.1-1-.1-1.5 0-2.1.1-4.3 0-6.4-.3-3.2 1-5.4 4.2-6.5h2.2zM63 128c-3.2-1.1-4.5-3.3-4.3-6.6.1-2.2 0-4.4 0-6.6 0-3.1 2.2-5.4 5.2-5.5 2.8-.1 5.3 2.1 5.4 5.1.1 2.8.1 5.7 0 8.5-.1 2.7-1.8 4.1-4.1 5.1H63zM101.4 64c0 20.6-16.7 37.3-37.4 37.3S26.7 84.6 26.7 63.9c0-20.6 16.7-37.2 37.3-37.2 20.6 0 37.4 16.7 37.4 37.3zM121.3 34.5c0 1.5-.8 3-2.5 4-2.4 1.4-4.8 2.9-7.2 4.2-2.6 1.4-5.7.5-7.1-2-1.5-2.5-.7-5.6 1.9-7.2 2.3-1.4 4.7-2.8 7.1-4.1 3.5-2 7.8.6 7.8 5.1zM121.3 93.6c0 4.3-3.9 6.9-7.4 5.3-2.8-1.3-5.4-2.9-8-4.6-2.3-1.5-2.9-4.6-1.5-7 1.4-2.4 4.4-3.4 6.8-2.1 2.6 1.4 5.2 2.9 7.8 4.5 1.6.9 2.3 2.5 2.3 3.9zM24.3 37.6c0 4.3-4 6.9-7.5 5.2-2.7-1.3-5.3-2.9-7.9-4.5-2.4-1.5-2.9-4.7-1.4-7.1 1.5-2.3 4.5-3.2 6.9-2 2.6 1.4 5.1 2.8 7.6 4.3 1.5 1.1 2.3 2.6 2.3 4.1zM18.9 84.6c2.4.1 4.4 1.6 5.1 3.8.7 2.2 0 4.7-2 5.9-2.5 1.6-5.1 3.1-7.8 4.5-2.5 1.3-5.5.2-6.9-2.2-1.3-2.4-.7-5.5 1.6-6.9 2.5-1.6 5.1-3 7.7-4.4.8-.4 1.6-.5 2.3-.7z"/>
</svg>
