<svg xmlns="http://www.w3.org/2000/svg" viewBox="0 0 128 128">
  <path d="M46.3 0h35.3c.1.1.1.1.2.1 6.1 1.6 8.9 5.2 8.9 11.5v4.3h17c8.6 0 14.9 6.3 15 14.9v12.6c0 3-1.6 4.5-4.6 4.5H112v64.9c0 7.3-4.5 13-11.5 14.7l-1.2.3H28.8c-1.3-.4-2.8-.7-4-1.3C19 124 16 119.4 16 113V48.1H9.8c-2.8 0-4.4-1.6-4.4-4.4V31.1c0-8.5 6.4-15 14.9-15h17v-5.5c.1-3.1 1.3-5.6 3.5-7.7C42.4 1.3 44.4.6 46.3 0zm-9 85.3c0 5.2-.1 10.5 0 15.7 0 1.1.4 2.3.9 3.3 1.2 2 3.7 2.8 5.9 2.1 2.3-.7 3.8-2.7 3.8-5.3V69.5c0-.7-.1-1.3-.3-2-.8-2.4-3.4-3.9-5.8-3.5-2.6.4-4.5 2.6-4.5 5.2v16.1zm32-.1V69.7c0-3.3-2.2-5.7-5.3-5.8-3.1 0-5.4 2.4-5.4 5.8v31.2c0 .8.2 1.7.4 2.4.9 2.3 3.4 3.6 5.9 3.2 2.5-.5 4.3-2.6 4.3-5.2.2-5.3.1-10.7.1-16.1zm21.3.1s.1 0 0 0V69.6c0-3.2-2.3-5.6-5.3-5.6S80 66.3 80 69.5v31.7c0 .8.2 1.8.6 2.5 1 2.2 3.5 3.3 5.9 2.8 2.4-.5 4.1-2.5 4.1-5 .1-5.4 0-10.8 0-16.2zM48.1 15.9H80v-4.2c0-1.8-1.5-3.2-3.2-3.2H51.3c-1.8 0-3.2 1.5-3.2 3.2v4.2z"/>
</svg>
