<?xml version="1.0" standalone="no"?>
<!DOCTYPE svg PUBLIC "-//W3C//DTD SVG 20010904//EN" "http://www.w3.org/TR/2001/REC-SVG-20010904/DTD/svg10.dtd">
<svg xmlns="http://www.w3.org/2000/svg" width="700pt" height="700pt" viewBox="0 0 700 700" preserveAspectRatio="xMidYMid meet">
<g transform="translate(0,700) scale(0.1,-0.1)" fill="#0000">
<path d="M2285 6603 c-272 -56 -480 -232 -577 -488 -36 -94 -48 -163 -51 -276
l-2 -94 -320 -1 c-176 -1 -340 -4 -365 -8 -464 -71 -809 -392 -906 -846 l-23
-105 2 -1740 c2 -957 6 -1753 10 -1770 4 -16 10 -39 12 -50 9 -43 14 -62 30
-110 119 -349 413 -619 764 -701 36 -9 75 -18 86 -22 11 -3 803 -6 1760 -7
1624 -2 1746 -1 1840 16 141 24 219 51 337 116 222 123 406 339 489 577 8 21
18 40 24 41 17 6 365 102 485 135 359 99 413 117 510 168 289 153 497 441 554
768 18 101 14 296 -9 389 -9 39 -30 115 -47 170 -16 55 -52 173 -78 263 -27
89 -54 177 -59 195 -19 58 -59 192 -64 212 -3 11 -23 79 -45 150 -73 234 -184
599 -192 630 -5 17 -17 59 -28 95 -116 382 -224 737 -282 930 -108 358 -138
447 -180 529 -135 269 -386 470 -685 549 -98 26 -162 34 -281 33 -130 0 -196
-13 -494 -98 -106 -31 -318 -90 -385 -108 -27 -7 -122 -33 -210 -58 -378 -107
-637 -178 -640 -175 -1 2 -9 37 -18 79 -49 245 -215 455 -439 557 -138 63
-366 87 -523 55z m313 -503 c66 -29 132 -100 153 -166 8 -27 15 -80 15 -119
l-1 -70 -309 0 -308 0 4 90 c6 120 45 193 134 252 68 44 225 50 312 13z m2572
-265 c149 -45 289 -162 354 -296 20 -42 42 -98 50 -125 7 -27 25 -89 41 -139
15 -49 35 -117 45 -150 10 -33 42 -136 70 -230 29 -93 56 -183 60 -200 5 -16
26 -88 48 -160 22 -71 84 -274 137 -450 52 -176 100 -331 105 -345 4 -14 20
-65 35 -115 14 -49 37 -124 50 -165 12 -41 33 -109 45 -150 12 -41 30 -102 41
-135 42 -134 111 -361 116 -380 3 -11 21 -71 40 -133 34 -113 37 -122 52 -198
11 -57 4 -169 -15 -234 -47 -163 -162 -298 -314 -368 -46 -22 -690 -206 -696
-199 -2 2 -5 718 -6 1593 l-3 1589 -27 96 c-66 239 -203 443 -398 591 -116 88
-375 198 -468 198 -46 0 -19 16 66 39 323 88 333 90 427 86 50 -2 115 -11 145
-20z m-3554 -585 l42 0 -1 -72 c0 -178 36 -307 128 -448 104 -161 266 -275
470 -331 54 -14 288 -19 365 -7 240 38 461 209 568 438 43 94 63 180 69 308
l6 112 66 0 c36 1 301 1 588 1 502 1 525 0 600 -21 108 -29 166 -64 249 -145
75 -75 113 -133 147 -230 l22 -60 3 -1700 c2 -1526 1 -1707 -13 -1772 -17 -77
-67 -183 -108 -230 -14 -15 -34 -37 -44 -48 -52 -58 -135 -108 -243 -145 l-65
-23 -1700 -1 c-1424 -2 -1711 0 -1770 12 -219 44 -405 227 -449 442 -10 53
-12 388 -11 1760 l1 1695 23 65 c75 216 260 372 468 396 32 3 59 7 60 8 1 1
277 -1 529 -4z m1037 1 l119 -1 -5 -85 c-11 -180 -113 -284 -287 -291 -140 -6
-239 43 -295 146 -24 46 -30 69 -33 142 l-4 87 48 3 c27 2 114 2 194 1 80 -1
198 -2 263 -2z"/>
<path d="M1339 3880 c-107 -32 -182 -131 -181 -238 0 -67 40 -152 89 -189 80
-61 -4 -58 1503 -57 1375 0 1375 0 1422 21 204 92 191 383 -21 458 -38 13
-215 15 -1415 14 -754 0 -1383 -4 -1397 -9z"/>
<path d="M1347 2898 c-78 -16 -141 -70 -173 -146 -52 -124 25 -288 152 -324
41 -12 275 -14 1429 -13 l1380 1 42 22 c52 27 82 56 114 107 20 33 24 53 24
115 0 84 -14 118 -69 173 -18 18 -50 42 -72 53 -38 18 -75 19 -1414 20 -756 0
-1392 -3 -1413 -8z"/>
<path d="M1322 1911 c-228 -78 -212 -411 23 -467 25 -6 568 -9 1410 -9 l1370
1 47 21 c96 44 143 119 142 228 0 80 -16 117 -72 173 -77 76 30 71 -1499 71
-1296 0 -1371 -1 -1421 -18z"/>
</g>
</svg>
