<svg xmlns="http://www.w3.org/2000/svg" viewBox="0 0 256 256">
  <path d="M51.3 131.8H149c5 0 9-4 9-9s-4-9-9-9H51.3c-5 0-9 4-9 9s4 9 9 9zm97.6 17.9H51.3c-5 0-9 4-9 9s4 9 9 9H149c5 0 9-4 9-9s-4.1-9-9.1-9zm0 35.8H51.3c-5 0-9 4-9 9s4 9 9 9H149c5 0 9-4 9-9s-4.1-9-9.1-9z"/><path d="M253 158.4 220.8 52c-5.9-20.6-27.5-32.7-48.3-26.9L119.2 40c-1.1-14.5-13.3-26-28.2-26h-2.2c-15.6 0-28.2 12.7-28.2 28.2v3.7H40.5c-21.5 0-39 17.5-39 39V203c0 21.5 17.5 39 39 39h119.2c17.5 0 32.3-11.6 37.2-27.4l29-8.1c10.1-2.8 18.5-9.4 23.6-18.5s6.4-19.6 3.5-29.6zM78.6 42.2c0-5.6 4.6-10.2 10.2-10.2H91c5.6 0 10.2 4.6 10.2 10.2v3.7H78.6v-3.7zm0 21.7h22.6v3.7c0 5.6-4.6 10.2-10.2 10.2h-2.2c-5.6 0-10.2-4.6-10.2-10.2v-3.7zM180.7 203c0 11.6-9.4 21-21 21H40.5c-11.6 0-21-9.4-21-21V84.9c0-11.6 9.4-21 21-21h20.1v3.7c0 15.6 12.7 28.2 28.2 28.2H91c15.6 0 28.2-12.7 28.2-28.2v-3.7h40.5c11.6 0 21 9.4 21 21V203zm53.1-23.9c-2.8 4.9-7.3 8.5-12.8 10l-22.4 6.3V84.9c0-20-15.2-36.6-34.6-38.7l13.3-3.7c11.3-3.1 23 3.4 26.2 14.5l32.2 106.3c1.5 5.4.8 11-1.9 15.8z"/>
</svg>
